<?xml version="1.0" ?><svg width="64px" height="64px" viewBox="0 0 64 64" xmlns="http://www.w3.org/2000/svg"><defs><style>.cls-1{fill:none;stroke:#000;stroke-linejoin:round;stroke-width:2px;}</style></defs><title/><g data-name="Layer 23" id="Layer_23"><rect class="cls-1" height="12" width="60" x="2" y="15"/><rect class="cls-1" height="35" width="56" x="4" y="27"/><line class="cls-1" x1="35" x2="44" y1="6" y2="15"/><line class="cls-1" x1="20" x2="29" y1="15" y2="6"/><circle class="cls-1" cx="32" cy="5" r="3"/><path class="cls-1" d="M16,27v6.06A1.94,1.94,0,0,1,14.06,35H14a2,2,0,0,1-2-1.94V33a2,2,0,0,0-2-2h0a2,2,0,0,0-2,2v2a2,2,0,0,1-2,2H6a2,2,0,0,1-2-2V27"/><rect class="cls-1" height="4" width="10" x="10" y="19"/><rect class="cls-1" height="4" width="10" x="44" y="19"/><rect class="cls-1" height="6" width="6" x="19" y="31"/><rect class="cls-1" height="6" width="6" x="29" y="31"/><rect class="cls-1" height="6" width="6" x="39" y="31"/><rect class="cls-1" height="6" width="6" x="49" y="31"/><rect class="cls-1" height="6" width="6" x="9" y="41"/><rect class="cls-1" height="6" width="6" x="19" y="41"/><rect class="cls-1" height="6" width="6" x="29" y="41"/><rect class="cls-1" height="6" width="6" x="39" y="41"/><rect class="cls-1" height="6" width="6" x="49" y="41"/><rect class="cls-1" height="6" width="6" x="9" y="51"/><rect class="cls-1" height="6" width="6" x="19" y="51"/><rect class="cls-1" height="6" width="6" x="29" y="51"/><rect class="cls-1" height="6" width="6" x="39" y="51"/><rect class="cls-1" height="6" width="6" x="49" y="51"/><line class="cls-1" x1="29" x2="35" y1="31" y2="37"/></g></svg>