<svg width="19" height="19" viewBox="0 0 19 19" fill="none" xmlns="http://www.w3.org/2000/svg">
<path d="M5.60475 1.01356C9.73004 0.995157 13.8592 0.996125 17.9845 1.01259C17.999 5.13788 18.0019 9.26608 17.9826 13.3904C17.474 13.4107 16.9626 13.4117 16.4541 13.3914C16.4231 10.1611 16.4619 6.92787 16.4338 3.69757C16.2313 3.8138 16.0802 3.99396 15.9194 4.15959C11.4638 8.61518 7.00729 13.0698 2.55364 17.5264C2.37929 17.6881 2.23497 17.9002 2.01316 18C1.64993 17.69 1.30317 17.352 1 16.982C1.08911 16.7573 1.30995 16.6178 1.46881 16.4425C5.79557 12.1167 10.1223 7.78993 14.4491 3.46316C14.7242 3.15515 15.0729 2.91106 15.2995 2.56236C12.0683 2.5333 8.83602 2.57398 5.60572 2.54299C5.58344 2.0335 5.58538 1.52208 5.60475 1.01356Z" fill="white" stroke="white"/>
</svg>
