<svg width="235" height="49" viewBox="0 0 235 49" fill="none" xmlns="http://www.w3.org/2000/svg">
<path d="M18.6758 1.35086C23.4293 0.312752 28.5025 0.772405 32.9816 2.6789C37.209 4.46094 40.8891 7.50597 43.4433 11.3161C45.5931 14.5054 46.9452 18.2265 47.3383 22.0522C47.798 26.397 47.0413 30.8677 45.1405 34.8051C43.6357 37.9435 41.4279 40.7382 38.7308 42.9388C37.1949 39.6633 35.6603 36.3877 34.1258 33.1122C36.2713 31.7403 37.9841 29.7023 38.9486 27.3446C40.0631 24.6489 40.1692 21.553 39.2386 18.788C38.3079 15.9862 36.3364 13.5508 33.7963 12.0488C31.8869 10.9088 29.6665 10.3049 27.4432 10.3077C22.0235 10.2992 16.6052 10.2936 11.1856 10.2851C12.1204 12.3245 13.061 14.3597 13.9944 16.3992C11.9861 16.3921 9.97775 16.3893 7.96942 16.385C9.00188 18.6352 10.0357 20.8854 11.0724 23.1342C13.3085 23.137 15.5445 23.1469 17.7805 23.1483C16.8626 21.1046 15.8698 19.092 15.0014 17.0286C19.2005 17.0611 23.3996 17.0356 27.5973 17.0554C29.4557 17.0809 31.2519 18.1162 32.2349 19.6875C33.1032 21.0438 33.3338 22.7862 32.8473 24.3222C32.3353 25.9911 30.9987 27.3757 29.3511 27.9527C28.6552 28.2059 27.9085 28.295 27.1702 28.2752C24.6188 28.2724 22.0659 28.2724 19.5145 28.2752C20.554 30.5339 21.5822 32.7982 22.6345 35.0498C24.2836 35.0385 25.9327 35.0484 27.5803 35.0455C29.3596 38.843 31.1373 42.639 32.9166 46.4379C29.0682 48.0558 24.7899 48.6202 20.6516 48.0785C16.0607 47.4944 11.6636 45.5101 8.17733 42.4679C5.00219 39.7184 2.57664 36.1119 1.23869 32.1306C-0.283113 27.6317 -0.404744 22.6717 0.885112 18.1006C2.0887 13.7983 4.55102 9.86222 7.87891 6.88367C10.9169 4.14555 14.6761 2.21218 18.6758 1.35086Z" fill="#F92C47"/>
<path d="M225.552 17.0519C227.884 16.786 230.45 16.9529 232.416 18.3687C233.891 19.4393 234.697 21.2355 234.911 23.009C235.189 25.3568 234.864 27.9634 233.252 29.7992C231.607 31.56 229.051 32.0281 226.74 31.9107C224.893 31.8513 222.967 31.3167 221.605 30.0113C220.038 28.4669 219.538 26.1502 219.637 24.0174C219.669 22.3344 220.114 20.6047 221.186 19.2767C222.262 17.9783 223.91 17.2768 225.552 17.0519ZM225.822 19.3035C224.95 19.5029 224.135 19.9937 223.593 20.7122C222.844 21.6895 222.626 22.9539 222.581 24.1532C222.559 25.4021 222.709 26.7174 223.381 27.7993C224.003 28.8261 225.132 29.4852 226.313 29.6408C227.579 29.8077 228.958 29.7242 230.061 29.0185C230.946 28.4754 231.535 27.5405 231.788 26.5462C232.137 25.1715 232.136 23.7077 231.796 22.3302C231.546 21.3317 230.968 20.3784 230.067 19.8452C228.806 19.0829 227.234 19.0334 225.822 19.3035Z" fill="white"/>
<path d="M66.3524 17.0688C69.3281 17.0674 72.3038 17.0702 75.281 17.0674C75.8453 17.0688 76.4209 17.1042 76.9626 17.2824C78.07 17.6473 78.9624 18.5722 79.3019 19.6867C79.7615 21.2028 79.613 22.9778 78.6442 24.2691C78.0756 25.0724 77.1083 25.4444 76.1748 25.6198C77.8168 27.6479 79.3768 29.7411 80.9807 31.7989C79.787 31.8031 78.5947 31.8003 77.401 31.8017C75.8241 29.7835 74.2259 27.7822 72.6645 25.7513C71.5429 25.7145 70.42 25.7456 69.2984 25.7357C69.2956 27.7568 69.2984 29.7778 69.297 31.8003C68.3154 31.8032 67.3339 31.8017 66.3524 31.8003C66.351 26.8898 66.351 21.9793 66.3524 17.0688ZM69.2984 19.2794C69.297 20.6866 69.297 22.0939 69.2984 23.5011C71.1497 23.4983 73.0025 23.5082 74.8553 23.4969C76.0362 23.4544 76.766 22.1321 76.592 21.0515C76.527 20.1973 75.8891 19.3275 74.9797 19.2893C73.0859 19.2624 71.1922 19.285 69.2984 19.2794Z" fill="white"/>
<path d="M83.8079 17.0703C87.908 17.0675 92.0067 17.0675 96.1068 17.0689C96.0771 17.8072 96.1676 18.5822 96.0643 19.2951C92.9613 19.3177 89.8569 19.2965 86.7539 19.305C86.7539 20.6387 86.7525 21.9724 86.7539 23.3061C89.4637 23.3089 92.1721 23.3046 94.8805 23.3089C94.8791 24.0429 94.8805 24.7784 94.8805 25.5138C92.1707 25.5152 89.4623 25.5124 86.7539 25.5152C86.7539 26.8744 86.7539 28.2321 86.7539 29.5913C89.905 29.5856 93.0561 29.6068 96.2072 29.58C96.2567 30.3182 96.2185 31.0608 96.2298 31.8004C92.0887 31.8019 87.949 31.8019 83.8079 31.8004C83.8079 26.8899 83.8079 21.9794 83.8079 17.0703Z" fill="white"/>
<path d="M97.507 31.8019C99.702 26.89 101.893 21.9781 104.089 17.069C105.086 17.069 106.083 17.0676 107.082 17.069C109.275 21.9781 111.469 26.8886 113.66 31.7991C112.571 31.8019 111.483 31.8033 110.396 31.7991C109.947 30.7355 109.496 29.6734 109.048 28.6098C106.733 28.607 104.416 28.6098 102.101 28.6084C101.649 29.6706 101.222 30.7454 100.764 31.8048C99.6779 31.7963 98.5932 31.8033 97.507 31.8019ZM105.586 20.1465C104.815 22.2638 103.869 24.3117 103.048 26.4091C104.744 26.3851 106.441 26.4063 108.137 26.3978C107.277 24.3174 106.365 22.2581 105.586 20.1465Z" fill="white"/>
<path d="M116.537 17.0689C119.707 17.0689 122.88 17.0661 126.051 17.0703C127.004 17.0604 127.988 17.3093 128.717 17.9514C129.847 18.8453 130.253 20.3515 130.231 21.739C130.185 22.746 129.957 23.7855 129.335 24.603C128.779 25.3328 127.969 25.8943 127.061 26.071C126.355 26.2181 125.633 26.17 124.919 26.1771C123.105 26.1842 121.29 26.1644 119.476 26.187C119.494 28.0525 119.466 29.918 119.491 31.7821C118.507 31.8245 117.521 31.792 116.537 31.8004C116.535 26.8899 116.535 21.9794 116.537 17.0689ZM119.483 19.2781C119.48 20.8324 119.481 22.3867 119.481 23.9411C121.439 23.9425 123.396 23.9467 125.353 23.9411C125.854 23.9524 126.338 23.7176 126.67 23.3485C127.486 22.4065 127.475 20.906 126.772 19.9046C126.457 19.4464 125.877 19.2682 125.344 19.2781C123.389 19.2767 121.436 19.2781 119.483 19.2781Z" fill="white"/>
<path d="M133.551 17.0688C136.658 17.0674 139.767 17.0688 142.875 17.0674C143.542 17.0688 144.226 17.124 144.844 17.3941C145.821 17.8311 146.594 18.6868 146.94 19.698C147.355 20.9681 147.346 22.3753 146.886 23.6312C146.507 24.6255 145.717 25.4515 144.739 25.8687C144.112 26.1332 143.421 26.1827 142.748 26.1784C140.668 26.1728 138.586 26.1841 136.505 26.1728C136.483 28.0481 136.502 29.9249 136.495 31.8003C135.514 31.8017 134.532 31.8017 133.551 31.8003C133.549 26.8898 133.549 21.9793 133.551 17.0688ZM136.497 19.278C136.491 20.8295 136.504 22.381 136.49 23.9311C138.432 23.9579 140.375 23.9367 142.318 23.9424C142.888 23.9664 143.443 23.6807 143.785 23.2296C144.483 22.2961 144.459 20.9214 143.827 19.9597C143.536 19.5014 142.986 19.2808 142.458 19.2822C140.471 19.2723 138.484 19.2794 136.497 19.278Z" fill="white"/>
<path d="M148.724 17.069C153.38 17.069 158.035 17.0676 162.691 17.069C162.69 17.8058 162.697 18.5427 162.686 19.2781C160.863 19.2767 159.041 19.2781 157.218 19.2781C157.215 23.4518 157.219 27.6269 157.217 31.8005C156.235 31.8019 155.254 31.8019 154.272 31.8005C154.269 27.6269 154.275 23.4518 154.269 19.2781C152.421 19.2781 150.572 19.2767 148.724 19.2781C148.721 18.5413 148.722 17.8058 148.724 17.069Z" fill="white"/>
<path d="M165.762 17.069C166.743 17.069 167.725 17.0675 168.708 17.0704C168.708 21.9795 168.708 26.89 168.708 31.7991C167.725 31.8033 166.743 31.8019 165.762 31.8005C165.76 26.89 165.76 21.9795 165.762 17.069Z" fill="white"/>
<path d="M171.534 17.0703C172.637 17.0661 173.74 17.0689 174.845 17.0689C176.383 20.8239 178.024 24.5365 179.482 28.324C180.942 24.5478 182.594 20.8479 184.103 17.0915C185.213 17.0392 186.326 17.0816 187.439 17.0703C185.299 21.9751 183.128 26.8673 181.005 31.7806C180 31.8259 178.993 31.7919 177.987 31.799C175.837 26.8885 173.682 21.9808 171.534 17.0703Z" fill="white"/>
<path d="M190.265 17.069C194.364 17.0676 198.464 17.069 202.564 17.069C202.564 17.8143 202.564 18.5597 202.562 19.305C199.445 19.3036 196.328 19.3036 193.211 19.305C193.21 20.6387 193.21 21.9724 193.211 23.3061C195.919 23.309 198.628 23.3061 201.336 23.3075C201.338 24.0416 201.335 24.777 201.338 25.511C198.629 25.5181 195.919 25.511 193.211 25.5153C193.21 26.873 193.21 28.2322 193.211 29.5913C196.369 29.5928 199.527 29.5913 202.685 29.5913C202.688 30.3282 202.687 31.0637 202.687 31.8005C198.546 31.8019 194.405 31.8019 190.265 31.8005C190.264 26.89 190.264 21.9795 190.265 17.069Z" fill="white"/>
<path d="M213.366 17.0733C214.348 17.0634 215.329 17.0704 216.312 17.069C216.314 21.9795 216.314 26.89 216.312 31.8005C215.331 31.8019 214.349 31.8019 213.368 31.8005C213.366 26.8914 213.368 21.9823 213.366 17.0733Z" fill="white"/>
<path d="M206.002 29.1005C206.902 29.0977 207.801 29.0991 208.702 29.1005C208.702 30 208.702 30.9009 208.702 31.8004C207.801 31.8019 206.902 31.8033 206.002 31.799C206.001 30.8995 206.001 30 206.002 29.1005Z" fill="white"/>
</svg>
