<?xml version="1.0" ?><svg viewBox="0 0 233 64" xmlns="http://www.w3.org/2000/svg" xmlns:xlink="http://www.w3.org/1999/xlink"><style>:root>svg{display:none}:root>svg:target{display:block}</style><svg viewBox="0 0 64 64" id="administration-calendar-calendars-svgrepo-com" xmlns="http://www.w3.org/2000/svg"><defs><style>.acls-1{fill:none;stroke:#000;stroke-linejoin:round;stroke-width:2px}</style></defs><g data-name="Layer 23" id="aLayer_23"><path class="acls-1" d="M2 15h60v12H2zM4 27h56v35H4zM35 6l9 9M20 15l9-9"/><circle class="acls-1" cx="32" cy="5" r="3"/><path class="acls-1" d="M16 27v6.06A1.94 1.94 0 0114.06 35H14a2 2 0 01-2-1.94V33a2 2 0 00-2-2 2 2 0 00-2 2v2a2 2 0 01-2 2 2 2 0 01-2-2v-8M10 19h10v4H10zM44 19h10v4H44zM19 31h6v6h-6zM29 31h6v6h-6zM39 31h6v6h-6zM49 31h6v6h-6zM9 41h6v6H9zM19 41h6v6h-6zM29 41h6v6h-6zM39 41h6v6h-6zM49 41h6v6h-6zM9 51h6v6H9zM19 51h6v6h-6zM29 51h6v6h-6zM39 51h6v6h-6zM49 51h6v6h-6zM29 31l6 6"/></g></svg><svg fill="none" viewBox="0 0 19 19" id="button-arrow" xmlns="http://www.w3.org/2000/svg"><path d="M5.605 1.014c4.125-.019 8.254-.018 12.38-.001.014 4.125.017 8.253-.002 12.377-.509.02-1.02.022-1.529.001-.03-3.23.008-6.463-.02-9.693-.203.116-.354.296-.515.462-4.455 4.455-8.912 8.91-13.365 13.366-.175.162-.319.374-.54.474A8.115 8.115 0 011 16.982c.09-.225.31-.364.469-.54 4.327-4.325 8.653-8.652 12.98-12.979.275-.308.624-.552.85-.9-3.23-.03-6.463.011-9.693-.02-.023-.51-.02-1.02-.001-1.53z" fill="#fff" stroke="#fff"/></svg><svg fill="none" viewBox="0 0 233 63" id="header-bootom-image" xmlns="http://www.w3.org/2000/svg"><path fill-rule="evenodd" clip-rule="evenodd" d="M50.33 27.983C43.727 19.791 37.79 12.426 24.5 6 17.521 1.974 8.813.74 0 .354V0h233v.189C223.528.362 214.557 1.272 208.5 5c-12.522 7.706-18.275 13.85-26.083 22.19-2.754 2.942-5.764 6.157-9.417 9.81-15 15-29.869 26-54.5 26-21 0-34.728-4.431-48.5-15-9.272-7.116-14.663-13.804-19.67-20.017z" fill="#11121E"/></svg></svg>